<svg width="58" height="58" viewBox="0 0 58 58" fill="none" xmlns="http://www.w3.org/2000/svg">
<g clip-path="url(#clip0_432_1774)">
<path d="M51.0155 26.6361H37.4717V22.1215C37.4717 15.8981 42.5348 10.8349 48.7582 10.8349H55.5302C56.7769 10.8349 57.7875 9.82434 57.7875 8.57763C57.7875 7.33091 56.7769 6.32031 55.5302 6.32031H48.7582C40.0454 6.32031 32.957 13.4087 32.957 22.1215V44.6946C32.957 48.4287 35.9949 51.4666 39.729 51.4666H51.0155C54.7496 51.4666 57.7875 48.4287 57.7875 44.6946V33.4081C57.7875 29.674 54.7496 26.6361 51.0155 26.6361ZM53.2729 44.6946C53.2729 45.9393 52.2602 46.952 51.0155 46.952H39.729C38.4843 46.952 37.4717 45.9393 37.4717 44.6946V31.1508H51.0155C52.2602 31.1508 53.2729 32.1634 53.2729 33.4081V44.6946Z" fill="#2490EB"/>
<path d="M15.8012 10.8349H22.5731C23.8199 10.8349 24.8305 9.82434 24.8305 8.57763C24.8305 7.33091 23.8199 6.32031 22.5731 6.32031H15.8012C7.08842 6.32031 0 13.4087 0 22.1215V44.6946C0 48.4287 3.03789 51.4666 6.77194 51.4666H18.0585C21.7926 51.4666 24.8305 48.4287 24.8305 44.6946V33.4081C24.8305 29.674 21.7926 26.6361 18.0585 26.6361H4.51463V22.1215C4.51463 15.8981 9.57778 10.8349 15.8012 10.8349ZM20.3158 33.4081V44.6946C20.3158 45.9393 19.3032 46.952 18.0585 46.952H6.77194C5.52726 46.952 4.51463 45.9393 4.51463 44.6946V31.1508H18.0585C19.3032 31.1508 20.3158 32.1634 20.3158 33.4081Z" fill="#2490EB"/>
</g>
<defs>
<clipPath id="clip0_432_1774">
<rect width="57.7872" height="57.7872" fill="white"/>
</clipPath>
</defs>
</svg>
